<mxfile host="app.diagrams.net" agent="Mozilla/5.0 (Windows NT 10.0; Win64; x64) AppleWebKit/537.36 (KHTML, like Gecko) Chrome/137.0.0.0 Safari/537.36" version="27.1.6">
  <diagram name="PÃ¡gina-1" id="wm2Thm_TJMUqEfxklIpo">
    <mxGraphModel dx="1426" dy="783" grid="1" gridSize="10" guides="1" tooltips="1" connect="1" arrows="1" fold="1" page="1" pageScale="1" pageWidth="827" pageHeight="1169" math="0" shadow="0">
      <root>
        <mxCell id="0" />
        <mxCell id="1" parent="0" />
        <mxCell id="2H8resvYaiQlwPWGvj57-15" style="edgeStyle=orthogonalEdgeStyle;rounded=0;orthogonalLoop=1;jettySize=auto;html=1;endArrow=ERmany;endFill=0;" parent="1" source="2H8resvYaiQlwPWGvj57-2" target="2H8resvYaiQlwPWGvj57-5" edge="1">
          <mxGeometry relative="1" as="geometry" />
        </mxCell>
        <mxCell id="EZf4dBvzwwmVIeVQvMx1-1" value="N" style="edgeLabel;html=1;align=center;verticalAlign=middle;resizable=0;points=[];" vertex="1" connectable="0" parent="2H8resvYaiQlwPWGvj57-15">
          <mxGeometry x="0.0286" y="-1" relative="1" as="geometry">
            <mxPoint x="7" y="-14" as="offset" />
          </mxGeometry>
        </mxCell>
        <mxCell id="2H8resvYaiQlwPWGvj57-17" style="edgeStyle=orthogonalEdgeStyle;rounded=0;orthogonalLoop=1;jettySize=auto;html=1;endArrow=ERmany;endFill=0;" parent="1" source="2H8resvYaiQlwPWGvj57-2" target="2H8resvYaiQlwPWGvj57-3" edge="1">
          <mxGeometry relative="1" as="geometry" />
        </mxCell>
        <mxCell id="EZf4dBvzwwmVIeVQvMx1-2" value="N" style="edgeLabel;html=1;align=center;verticalAlign=middle;resizable=0;points=[];" vertex="1" connectable="0" parent="2H8resvYaiQlwPWGvj57-17">
          <mxGeometry x="0.12" y="2" relative="1" as="geometry">
            <mxPoint x="6" y="2" as="offset" />
          </mxGeometry>
        </mxCell>
        <mxCell id="2H8resvYaiQlwPWGvj57-2" value="User_Rol" style="rhombus;whiteSpace=wrap;html=1;" parent="1" vertex="1">
          <mxGeometry x="17.5" y="200" width="130" height="60" as="geometry" />
        </mxCell>
        <mxCell id="2H8resvYaiQlwPWGvj57-3" value="Users" style="rounded=0;whiteSpace=wrap;html=1;" parent="1" vertex="1">
          <mxGeometry x="22.5" y="310" width="120" height="60" as="geometry" />
        </mxCell>
        <mxCell id="2H8resvYaiQlwPWGvj57-4" value="&lt;div style=&quot;line-height: 30%;&quot;&gt;&lt;h1 style=&quot;margin-top: 0px; line-height: 30%;&quot;&gt;&lt;font style=&quot;font-size: 14px; line-height: 30%;&quot;&gt;Users&lt;/font&gt;&lt;/h1&gt;&lt;p&gt;&lt;font style=&quot;font-size: 11px; line-height: 30%;&quot;&gt;- Mail: varchar&lt;/font&gt;&lt;/p&gt;&lt;p&gt;&lt;font style=&quot;font-size: 11px; line-height: 30%;&quot;&gt;- Password: varchar&lt;/font&gt;&lt;/p&gt;&lt;p&gt;&lt;font style=&quot;font-size: 11px; line-height: 30%;&quot;&gt;- creation_date: timestamp&lt;/font&gt;&lt;/p&gt;&lt;p&gt;&lt;span style=&quot;font-size: 11px;&quot;&gt;- name: varchar&lt;/span&gt;&lt;/p&gt;&lt;p&gt;&lt;span style=&quot;font-size: 11px;&quot;&gt;- last_name: varchar&lt;/span&gt;&lt;/p&gt;&lt;p&gt;&lt;span style=&quot;font-size: 11px;&quot;&gt;- ID: varchar&lt;/span&gt;&lt;/p&gt;&lt;/div&gt;" style="text;html=1;whiteSpace=wrap;overflow=hidden;rounded=0;" parent="1" vertex="1">
          <mxGeometry x="520" y="30" width="140" height="120" as="geometry" />
        </mxCell>
        <mxCell id="2H8resvYaiQlwPWGvj57-5" value="Rols" style="rounded=0;whiteSpace=wrap;html=1;" parent="1" vertex="1">
          <mxGeometry x="22.5" y="70" width="120" height="60" as="geometry" />
        </mxCell>
        <mxCell id="2H8resvYaiQlwPWGvj57-6" value="&lt;div style=&quot;line-height: 30%;&quot;&gt;&lt;h1 style=&quot;margin-top: 0px; line-height: 30%;&quot;&gt;&lt;font style=&quot;font-size: 14px; line-height: 30%;&quot;&gt;Rols&lt;/font&gt;&lt;/h1&gt;&lt;p&gt;&lt;span style=&quot;font-size: 11px;&quot;&gt;- title: varchar&lt;/span&gt;&lt;/p&gt;&lt;p&gt;&lt;span style=&quot;font-size: 11px;&quot;&gt;- ID: varchar&lt;/span&gt;&lt;/p&gt;&lt;/div&gt;" style="text;html=1;whiteSpace=wrap;overflow=hidden;rounded=0;" parent="1" vertex="1">
          <mxGeometry x="520" y="170" width="90" height="60" as="geometry" />
        </mxCell>
        <mxCell id="2H8resvYaiQlwPWGvj57-7" value="Privileges" style="rounded=0;whiteSpace=wrap;html=1;" parent="1" vertex="1">
          <mxGeometry x="372.5" y="70" width="120" height="60" as="geometry" />
        </mxCell>
        <mxCell id="2H8resvYaiQlwPWGvj57-8" value="&lt;div style=&quot;line-height: 30%;&quot;&gt;&lt;h1 style=&quot;margin-top: 0px; line-height: 30%;&quot;&gt;&lt;span style=&quot;font-size: 14px;&quot;&gt;Privileges&lt;/span&gt;&lt;/h1&gt;&lt;p&gt;&lt;span style=&quot;font-size: 11px;&quot;&gt;- privilege: varchar&lt;/span&gt;&lt;/p&gt;&lt;p&gt;&lt;span style=&quot;font-size: 11px;&quot;&gt;- ID: varchar&lt;/span&gt;&lt;/p&gt;&lt;/div&gt;" style="text;html=1;whiteSpace=wrap;overflow=hidden;rounded=0;" parent="1" vertex="1">
          <mxGeometry x="520" y="250" width="110" height="60" as="geometry" />
        </mxCell>
        <mxCell id="2H8resvYaiQlwPWGvj57-10" value="&lt;div style=&quot;line-height: 30%;&quot;&gt;&lt;h1 style=&quot;margin-top: 0px; line-height: 30%;&quot;&gt;&lt;span style=&quot;font-size: 14px;&quot;&gt;User_Rol&lt;/span&gt;&lt;/h1&gt;&lt;p&gt;&lt;span style=&quot;font-size: 11px;&quot;&gt;- ID_rol: varchar&lt;/span&gt;&lt;span style=&quot;font-size: 11px; background-color: transparent; color: light-dark(rgb(0, 0, 0), rgb(255, 255, 255));&quot;&gt;&lt;/span&gt;&lt;/p&gt;&lt;p&gt;&lt;span style=&quot;font-size: 11px;&quot;&gt;- ID_user: varchar&lt;/span&gt;&lt;span style=&quot;font-size: 11px;&quot;&gt;&lt;/span&gt;&lt;/p&gt;&lt;p&gt;&lt;span style=&quot;font-size: 11px; background-color: transparent; color: light-dark(rgb(0, 0, 0), rgb(255, 255, 255));&quot;&gt;- ID: varchar&lt;/span&gt;&lt;/p&gt;&lt;/div&gt;" style="text;html=1;whiteSpace=wrap;overflow=hidden;rounded=0;" parent="1" vertex="1">
          <mxGeometry x="680" y="90" width="110" height="80" as="geometry" />
        </mxCell>
        <mxCell id="2H8resvYaiQlwPWGvj57-12" value="&lt;div style=&quot;line-height: 30%;&quot;&gt;&lt;h1 style=&quot;margin-top: 0px; line-height: 30%;&quot;&gt;&lt;span style=&quot;font-size: 14px;&quot;&gt;Privileges_Rol&lt;/span&gt;&lt;/h1&gt;&lt;p&gt;&lt;span style=&quot;font-size: 11px;&quot;&gt;- ID_rol: varchar&lt;/span&gt;&lt;span style=&quot;font-size: 11px; background-color: transparent; color: light-dark(rgb(0, 0, 0), rgb(255, 255, 255));&quot;&gt;&lt;/span&gt;&lt;/p&gt;&lt;p&gt;&lt;span style=&quot;font-size: 11px;&quot;&gt;- ID_privilege: varchar&lt;/span&gt;&lt;span style=&quot;font-size: 11px;&quot;&gt;&lt;/span&gt;&lt;/p&gt;&lt;p&gt;&lt;span style=&quot;font-size: 11px; background-color: transparent; color: light-dark(rgb(0, 0, 0), rgb(255, 255, 255));&quot;&gt;- ID: varchar&lt;/span&gt;&lt;/p&gt;&lt;/div&gt;" style="text;html=1;whiteSpace=wrap;overflow=hidden;rounded=0;" parent="1" vertex="1">
          <mxGeometry x="680" y="200" width="110" height="80" as="geometry" />
        </mxCell>
        <mxCell id="2H8resvYaiQlwPWGvj57-18" style="edgeStyle=orthogonalEdgeStyle;rounded=0;orthogonalLoop=1;jettySize=auto;html=1;endArrow=ERmany;endFill=0;" parent="1" source="2H8resvYaiQlwPWGvj57-16" target="2H8resvYaiQlwPWGvj57-5" edge="1">
          <mxGeometry relative="1" as="geometry" />
        </mxCell>
        <mxCell id="EZf4dBvzwwmVIeVQvMx1-3" value="N" style="edgeLabel;html=1;align=center;verticalAlign=middle;resizable=0;points=[];" vertex="1" connectable="0" parent="2H8resvYaiQlwPWGvj57-18">
          <mxGeometry x="0.6094" y="-3" relative="1" as="geometry">
            <mxPoint x="6" y="-7" as="offset" />
          </mxGeometry>
        </mxCell>
        <mxCell id="2H8resvYaiQlwPWGvj57-19" style="edgeStyle=orthogonalEdgeStyle;rounded=0;orthogonalLoop=1;jettySize=auto;html=1;endArrow=ERmany;endFill=0;" parent="1" source="2H8resvYaiQlwPWGvj57-16" target="2H8resvYaiQlwPWGvj57-7" edge="1">
          <mxGeometry relative="1" as="geometry" />
        </mxCell>
        <mxCell id="EZf4dBvzwwmVIeVQvMx1-4" value="N" style="edgeLabel;html=1;align=center;verticalAlign=middle;resizable=0;points=[];" vertex="1" connectable="0" parent="2H8resvYaiQlwPWGvj57-19">
          <mxGeometry x="-0.4773" y="3" relative="1" as="geometry">
            <mxPoint x="13" y="-9" as="offset" />
          </mxGeometry>
        </mxCell>
        <mxCell id="2H8resvYaiQlwPWGvj57-16" value="Privileges_Rol" style="rhombus;whiteSpace=wrap;html=1;" parent="1" vertex="1">
          <mxGeometry x="206.5" y="70" width="130" height="60" as="geometry" />
        </mxCell>
        <mxCell id="2H8resvYaiQlwPWGvj57-20" value="Mails" style="rounded=0;whiteSpace=wrap;html=1;" parent="1" vertex="1">
          <mxGeometry x="372.5" y="310" width="120" height="60" as="geometry" />
        </mxCell>
        <mxCell id="2H8resvYaiQlwPWGvj57-21" value="&lt;div style=&quot;line-height: 30%;&quot;&gt;&lt;h1 style=&quot;margin-top: 0px; line-height: 30%;&quot;&gt;&lt;span style=&quot;font-size: 14px;&quot;&gt;Mails&lt;/span&gt;&lt;/h1&gt;&lt;p&gt;&lt;span style=&quot;font-size: 11px;&quot;&gt;- message: varchar&lt;/span&gt;&lt;/p&gt;&lt;p&gt;&lt;span style=&quot;font-size: 11px;&quot;&gt;- ID_user: varchar&lt;/span&gt;&lt;/p&gt;&lt;p&gt;&lt;span style=&quot;font-size: 11px;&quot;&gt;- ID: varchar&lt;/span&gt;&lt;/p&gt;&lt;/div&gt;" style="text;html=1;whiteSpace=wrap;overflow=hidden;rounded=0;" parent="1" vertex="1">
          <mxGeometry x="520" y="330" width="110" height="80" as="geometry" />
        </mxCell>
        <mxCell id="2H8resvYaiQlwPWGvj57-23" style="edgeStyle=orthogonalEdgeStyle;rounded=0;orthogonalLoop=1;jettySize=auto;html=1;endArrow=none;startFill=0;" parent="1" source="2H8resvYaiQlwPWGvj57-22" target="2H8resvYaiQlwPWGvj57-3" edge="1">
          <mxGeometry relative="1" as="geometry" />
        </mxCell>
        <mxCell id="EZf4dBvzwwmVIeVQvMx1-5" value="1" style="edgeLabel;html=1;align=center;verticalAlign=middle;resizable=0;points=[];" vertex="1" connectable="0" parent="2H8resvYaiQlwPWGvj57-23">
          <mxGeometry x="0.6719" y="-2" relative="1" as="geometry">
            <mxPoint x="1" y="-8" as="offset" />
          </mxGeometry>
        </mxCell>
        <mxCell id="2H8resvYaiQlwPWGvj57-24" style="edgeStyle=orthogonalEdgeStyle;rounded=0;orthogonalLoop=1;jettySize=auto;html=1;endArrow=ERmany;endFill=0;" parent="1" source="2H8resvYaiQlwPWGvj57-22" target="2H8resvYaiQlwPWGvj57-20" edge="1">
          <mxGeometry relative="1" as="geometry" />
        </mxCell>
        <mxCell id="EZf4dBvzwwmVIeVQvMx1-6" value="N" style="edgeLabel;html=1;align=center;verticalAlign=middle;resizable=0;points=[];" vertex="1" connectable="0" parent="2H8resvYaiQlwPWGvj57-24">
          <mxGeometry x="0.3409" relative="1" as="geometry">
            <mxPoint x="3" y="-10" as="offset" />
          </mxGeometry>
        </mxCell>
        <mxCell id="2H8resvYaiQlwPWGvj57-22" value="Sent" style="rhombus;whiteSpace=wrap;html=1;" parent="1" vertex="1">
          <mxGeometry x="206.5" y="310" width="130" height="60" as="geometry" />
        </mxCell>
        <mxCell id="2H8resvYaiQlwPWGvj57-25" value="Generics" style="rounded=0;whiteSpace=wrap;html=1;" parent="1" vertex="1">
          <mxGeometry x="197.5" y="570" width="120" height="60" as="geometry" />
        </mxCell>
        <mxCell id="2H8resvYaiQlwPWGvj57-26" value="&lt;div style=&quot;line-height: 30%;&quot;&gt;&lt;h1 style=&quot;margin-top: 0px; line-height: 30%;&quot;&gt;&lt;span style=&quot;font-size: 14px;&quot;&gt;Generics&lt;/span&gt;&lt;/h1&gt;&lt;p&gt;&lt;span style=&quot;font-size: 11px;&quot;&gt;- media: varchar&lt;/span&gt;&lt;/p&gt;&lt;p&gt;&lt;span style=&quot;font-size: 11px;&quot;&gt;- name: varchar&lt;/span&gt;&lt;/p&gt;&lt;p&gt;&lt;span style=&quot;font-size: 11px;&quot;&gt;- description: varchar&lt;/span&gt;&lt;/p&gt;&lt;p&gt;&lt;span style=&quot;font-size: 11px; background-color: transparent; color: light-dark(rgb(0, 0, 0), rgb(255, 255, 255));&quot;&gt;- ID: varchar&lt;/span&gt;&lt;/p&gt;&lt;/div&gt;" style="text;html=1;whiteSpace=wrap;overflow=hidden;rounded=0;" parent="1" vertex="1">
          <mxGeometry x="660" y="535" width="110" height="100" as="geometry" />
        </mxCell>
        <mxCell id="2H8resvYaiQlwPWGvj57-27" value="Skills" style="rounded=0;whiteSpace=wrap;html=1;" parent="1" vertex="1">
          <mxGeometry x="22.5" y="670" width="120" height="60" as="geometry" />
        </mxCell>
        <mxCell id="2H8resvYaiQlwPWGvj57-28" value="&lt;div style=&quot;line-height: 30%;&quot;&gt;&lt;h1 style=&quot;margin-top: 0px; line-height: 30%;&quot;&gt;&lt;span style=&quot;font-size: 14px;&quot;&gt;Skills&lt;/span&gt;&lt;/h1&gt;&lt;p&gt;&lt;span style=&quot;font-size: 11px;&quot;&gt;- experience: number&lt;/span&gt;&lt;/p&gt;&lt;p&gt;&lt;span style=&quot;font-size: 11px;&quot;&gt;- ID_generic: varchar&lt;/span&gt;&lt;/p&gt;&lt;p&gt;&lt;span style=&quot;background-color: transparent; color: light-dark(rgb(0, 0, 0), rgb(255, 255, 255)); font-size: 11px;&quot;&gt;- ID: varchar&lt;/span&gt;&lt;/p&gt;&lt;/div&gt;" style="text;html=1;whiteSpace=wrap;overflow=hidden;rounded=0;" parent="1" vertex="1">
          <mxGeometry x="520" y="430" width="110" height="80" as="geometry" />
        </mxCell>
        <mxCell id="2H8resvYaiQlwPWGvj57-31" style="edgeStyle=orthogonalEdgeStyle;rounded=0;orthogonalLoop=1;jettySize=auto;html=1;endArrow=none;startFill=0;" parent="1" source="2H8resvYaiQlwPWGvj57-29" target="2H8resvYaiQlwPWGvj57-25" edge="1">
          <mxGeometry relative="1" as="geometry" />
        </mxCell>
        <mxCell id="EZf4dBvzwwmVIeVQvMx1-11" value="1" style="edgeLabel;html=1;align=center;verticalAlign=middle;resizable=0;points=[];" vertex="1" connectable="0" parent="2H8resvYaiQlwPWGvj57-31">
          <mxGeometry x="0.54" relative="1" as="geometry">
            <mxPoint y="-13" as="offset" />
          </mxGeometry>
        </mxCell>
        <mxCell id="2H8resvYaiQlwPWGvj57-32" style="edgeStyle=orthogonalEdgeStyle;rounded=0;orthogonalLoop=1;jettySize=auto;html=1;endArrow=none;startFill=0;" parent="1" source="2H8resvYaiQlwPWGvj57-29" target="2H8resvYaiQlwPWGvj57-27" edge="1">
          <mxGeometry relative="1" as="geometry" />
        </mxCell>
        <mxCell id="EZf4dBvzwwmVIeVQvMx1-12" value="1" style="edgeLabel;html=1;align=center;verticalAlign=middle;resizable=0;points=[];" vertex="1" connectable="0" parent="2H8resvYaiQlwPWGvj57-32">
          <mxGeometry x="0.35" y="-1" relative="1" as="geometry">
            <mxPoint x="13" as="offset" />
          </mxGeometry>
        </mxCell>
        <mxCell id="2H8resvYaiQlwPWGvj57-29" value="Has" style="rhombus;whiteSpace=wrap;html=1;" parent="1" vertex="1">
          <mxGeometry x="17.5" y="570" width="130" height="60" as="geometry" />
        </mxCell>
        <mxCell id="2H8resvYaiQlwPWGvj57-34" style="edgeStyle=orthogonalEdgeStyle;rounded=0;orthogonalLoop=1;jettySize=auto;html=1;endArrow=none;startFill=0;" parent="1" source="2H8resvYaiQlwPWGvj57-33" target="2H8resvYaiQlwPWGvj57-25" edge="1">
          <mxGeometry relative="1" as="geometry" />
        </mxCell>
        <mxCell id="EZf4dBvzwwmVIeVQvMx1-9" value="1" style="edgeLabel;html=1;align=center;verticalAlign=middle;resizable=0;points=[];" vertex="1" connectable="0" parent="2H8resvYaiQlwPWGvj57-34">
          <mxGeometry x="0.2235" y="-3" relative="1" as="geometry">
            <mxPoint x="-6" y="-11" as="offset" />
          </mxGeometry>
        </mxCell>
        <mxCell id="2H8resvYaiQlwPWGvj57-37" style="edgeStyle=orthogonalEdgeStyle;rounded=0;orthogonalLoop=1;jettySize=auto;html=1;endArrow=none;startFill=0;" parent="1" source="2H8resvYaiQlwPWGvj57-33" target="2H8resvYaiQlwPWGvj57-35" edge="1">
          <mxGeometry relative="1" as="geometry" />
        </mxCell>
        <mxCell id="EZf4dBvzwwmVIeVQvMx1-10" value="1" style="edgeLabel;html=1;align=center;verticalAlign=middle;resizable=0;points=[];" vertex="1" connectable="0" parent="2H8resvYaiQlwPWGvj57-37">
          <mxGeometry x="0.1" y="-2" relative="1" as="geometry">
            <mxPoint x="-11" y="-5" as="offset" />
          </mxGeometry>
        </mxCell>
        <mxCell id="2H8resvYaiQlwPWGvj57-33" value="Has" style="rhombus;whiteSpace=wrap;html=1;" parent="1" vertex="1">
          <mxGeometry x="360" y="570" width="130" height="60" as="geometry" />
        </mxCell>
        <mxCell id="2H8resvYaiQlwPWGvj57-35" value="Experiences" style="rounded=0;whiteSpace=wrap;html=1;" parent="1" vertex="1">
          <mxGeometry x="365" y="470" width="120" height="60" as="geometry" />
        </mxCell>
        <mxCell id="2H8resvYaiQlwPWGvj57-36" value="&lt;div style=&quot;line-height: 30%;&quot;&gt;&lt;h1 style=&quot;margin-top: 0px; line-height: 30%;&quot;&gt;&lt;span style=&quot;font-size: 14px;&quot;&gt;Experiences&lt;/span&gt;&lt;/h1&gt;&lt;p&gt;&lt;span style=&quot;font-size: 11px;&quot;&gt;- Start_date: year&lt;/span&gt;&lt;/p&gt;&lt;p&gt;&lt;span style=&quot;font-size: 11px;&quot;&gt;- End_date: year&lt;/span&gt;&lt;/p&gt;&lt;p&gt;&lt;span style=&quot;background-color: transparent; color: light-dark(rgb(0, 0, 0), rgb(255, 255, 255)); font-size: 11px;&quot;&gt;- ID_type: varchar&lt;/span&gt;&lt;/p&gt;&lt;p&gt;&lt;span style=&quot;background-color: transparent; color: light-dark(rgb(0, 0, 0), rgb(255, 255, 255)); font-size: 11px;&quot;&gt;- ID_generic: varchar&lt;/span&gt;&lt;/p&gt;&lt;p&gt;&lt;span style=&quot;background-color: transparent; color: light-dark(rgb(0, 0, 0), rgb(255, 255, 255)); font-size: 11px;&quot;&gt;- ID: varchar&lt;/span&gt;&lt;/p&gt;&lt;/div&gt;" style="text;html=1;whiteSpace=wrap;overflow=hidden;rounded=0;" parent="1" vertex="1">
          <mxGeometry x="520" y="630" width="110" height="110" as="geometry" />
        </mxCell>
        <mxCell id="2H8resvYaiQlwPWGvj57-38" value="Projects" style="rounded=0;whiteSpace=wrap;html=1;" parent="1" vertex="1">
          <mxGeometry x="197.5" y="770" width="120" height="60" as="geometry" />
        </mxCell>
        <mxCell id="2H8resvYaiQlwPWGvj57-41" style="edgeStyle=orthogonalEdgeStyle;rounded=0;orthogonalLoop=1;jettySize=auto;html=1;endArrow=none;startFill=0;" parent="1" source="2H8resvYaiQlwPWGvj57-39" target="2H8resvYaiQlwPWGvj57-38" edge="1">
          <mxGeometry relative="1" as="geometry" />
        </mxCell>
        <mxCell id="EZf4dBvzwwmVIeVQvMx1-15" value="1" style="edgeLabel;html=1;align=center;verticalAlign=middle;resizable=0;points=[];" vertex="1" connectable="0" parent="2H8resvYaiQlwPWGvj57-41">
          <mxGeometry x="0.15" y="2" relative="1" as="geometry">
            <mxPoint x="-13" y="1" as="offset" />
          </mxGeometry>
        </mxCell>
        <mxCell id="2H8resvYaiQlwPWGvj57-42" style="edgeStyle=orthogonalEdgeStyle;rounded=0;orthogonalLoop=1;jettySize=auto;html=1;endArrow=none;startFill=0;" parent="1" source="2H8resvYaiQlwPWGvj57-39" target="2H8resvYaiQlwPWGvj57-25" edge="1">
          <mxGeometry relative="1" as="geometry" />
        </mxCell>
        <mxCell id="EZf4dBvzwwmVIeVQvMx1-16" value="1" style="edgeLabel;html=1;align=center;verticalAlign=middle;resizable=0;points=[];" vertex="1" connectable="0" parent="2H8resvYaiQlwPWGvj57-42">
          <mxGeometry x="0.45" relative="1" as="geometry">
            <mxPoint x="-13" as="offset" />
          </mxGeometry>
        </mxCell>
        <mxCell id="2H8resvYaiQlwPWGvj57-39" value="Has" style="rhombus;whiteSpace=wrap;html=1;" parent="1" vertex="1">
          <mxGeometry x="192.5" y="670" width="130" height="60" as="geometry" />
        </mxCell>
        <mxCell id="2H8resvYaiQlwPWGvj57-43" value="&lt;div style=&quot;line-height: 30%;&quot;&gt;&lt;h1 style=&quot;margin-top: 0px; line-height: 30%;&quot;&gt;&lt;span style=&quot;font-size: 14px;&quot;&gt;Projects&lt;/span&gt;&lt;/h1&gt;&lt;p&gt;&lt;span style=&quot;font-size: 11px;&quot;&gt;- Start_date: year&lt;/span&gt;&lt;/p&gt;&lt;p&gt;&lt;span style=&quot;font-size: 11px;&quot;&gt;- End_date: year&lt;/span&gt;&lt;/p&gt;&lt;p&gt;&lt;span style=&quot;background-color: transparent; color: light-dark(rgb(0, 0, 0), rgb(255, 255, 255)); font-size: 11px;&quot;&gt;- ID_generic: varchar&lt;/span&gt;&lt;/p&gt;&lt;p&gt;&lt;span style=&quot;background-color: transparent; color: light-dark(rgb(0, 0, 0), rgb(255, 255, 255)); font-size: 11px;&quot;&gt;- ID: varchar&lt;/span&gt;&lt;/p&gt;&lt;/div&gt;" style="text;html=1;whiteSpace=wrap;overflow=hidden;rounded=0;" parent="1" vertex="1">
          <mxGeometry x="520" y="520" width="110" height="100" as="geometry" />
        </mxCell>
        <mxCell id="2H8resvYaiQlwPWGvj57-47" style="edgeStyle=orthogonalEdgeStyle;rounded=0;orthogonalLoop=1;jettySize=auto;html=1;endArrow=none;startFill=0;" parent="1" source="2H8resvYaiQlwPWGvj57-44" target="2H8resvYaiQlwPWGvj57-46" edge="1">
          <mxGeometry relative="1" as="geometry" />
        </mxCell>
        <mxCell id="EZf4dBvzwwmVIeVQvMx1-7" value="1" style="edgeLabel;html=1;align=center;verticalAlign=middle;resizable=0;points=[];" vertex="1" connectable="0" parent="2H8resvYaiQlwPWGvj57-47">
          <mxGeometry x="0.5" y="-4" relative="1" as="geometry">
            <mxPoint x="-1" y="-10" as="offset" />
          </mxGeometry>
        </mxCell>
        <mxCell id="2H8resvYaiQlwPWGvj57-48" style="edgeStyle=orthogonalEdgeStyle;rounded=0;orthogonalLoop=1;jettySize=auto;html=1;endArrow=ERmany;startFill=0;endFill=0;" parent="1" source="2H8resvYaiQlwPWGvj57-44" target="2H8resvYaiQlwPWGvj57-35" edge="1">
          <mxGeometry relative="1" as="geometry" />
        </mxCell>
        <mxCell id="EZf4dBvzwwmVIeVQvMx1-8" value="N" style="edgeLabel;html=1;align=center;verticalAlign=middle;resizable=0;points=[];" vertex="1" connectable="0" parent="2H8resvYaiQlwPWGvj57-48">
          <mxGeometry x="0.2471" relative="1" as="geometry">
            <mxPoint y="-14" as="offset" />
          </mxGeometry>
        </mxCell>
        <mxCell id="2H8resvYaiQlwPWGvj57-44" value="Has" style="rhombus;whiteSpace=wrap;html=1;" parent="1" vertex="1">
          <mxGeometry x="192.5" y="470" width="130" height="60" as="geometry" />
        </mxCell>
        <mxCell id="2H8resvYaiQlwPWGvj57-46" value="Type_of" style="rounded=0;whiteSpace=wrap;html=1;" parent="1" vertex="1">
          <mxGeometry x="22.5" y="470" width="120" height="60" as="geometry" />
        </mxCell>
        <mxCell id="2H8resvYaiQlwPWGvj57-49" value="&lt;div style=&quot;line-height: 30%;&quot;&gt;&lt;h1 style=&quot;margin-top: 0px; line-height: 30%;&quot;&gt;&lt;span style=&quot;font-size: 14px;&quot;&gt;Type_of&lt;/span&gt;&lt;/h1&gt;&lt;p&gt;&lt;span style=&quot;font-size: 11px;&quot;&gt;- name: varchar&lt;/span&gt;&lt;/p&gt;&lt;p&gt;&lt;span style=&quot;background-color: transparent; color: light-dark(rgb(0, 0, 0), rgb(255, 255, 255)); font-size: 11px;&quot;&gt;- ID: varchar&lt;/span&gt;&lt;/p&gt;&lt;/div&gt;" style="text;html=1;whiteSpace=wrap;overflow=hidden;rounded=0;" parent="1" vertex="1">
          <mxGeometry x="660" y="652.5" width="110" height="65" as="geometry" />
        </mxCell>
        <mxCell id="2H8resvYaiQlwPWGvj57-52" style="edgeStyle=orthogonalEdgeStyle;rounded=0;orthogonalLoop=1;jettySize=auto;html=1;endArrow=ERmany;startFill=0;endFill=0;" parent="1" source="2H8resvYaiQlwPWGvj57-51" target="2H8resvYaiQlwPWGvj57-38" edge="1">
          <mxGeometry relative="1" as="geometry" />
        </mxCell>
        <mxCell id="EZf4dBvzwwmVIeVQvMx1-14" value="N" style="edgeLabel;html=1;align=center;verticalAlign=middle;resizable=0;points=[];" vertex="1" connectable="0" parent="2H8resvYaiQlwPWGvj57-52">
          <mxGeometry x="0.34" relative="1" as="geometry">
            <mxPoint y="-12" as="offset" />
          </mxGeometry>
        </mxCell>
        <mxCell id="2H8resvYaiQlwPWGvj57-53" style="edgeStyle=orthogonalEdgeStyle;rounded=0;orthogonalLoop=1;jettySize=auto;html=1;endArrow=ERmany;startFill=0;endFill=0;" parent="1" source="2H8resvYaiQlwPWGvj57-51" target="2H8resvYaiQlwPWGvj57-27" edge="1">
          <mxGeometry relative="1" as="geometry" />
        </mxCell>
        <mxCell id="EZf4dBvzwwmVIeVQvMx1-13" value="N" style="edgeLabel;html=1;align=center;verticalAlign=middle;resizable=0;points=[];" vertex="1" connectable="0" parent="2H8resvYaiQlwPWGvj57-53">
          <mxGeometry x="0.1" y="1" relative="1" as="geometry">
            <mxPoint x="11" y="-3" as="offset" />
          </mxGeometry>
        </mxCell>
        <mxCell id="2H8resvYaiQlwPWGvj57-51" value="technologies" style="rhombus;whiteSpace=wrap;html=1;" parent="1" vertex="1">
          <mxGeometry x="17.5" y="770" width="130" height="60" as="geometry" />
        </mxCell>
        <mxCell id="2H8resvYaiQlwPWGvj57-54" value="&lt;div style=&quot;line-height: 30%;&quot;&gt;&lt;h1 style=&quot;margin-top: 0px; line-height: 30%;&quot;&gt;&lt;span style=&quot;font-size: 14px;&quot;&gt;Technologies&lt;/span&gt;&lt;/h1&gt;&lt;p&gt;&lt;span style=&quot;font-size: 11px;&quot;&gt;- ID_project: varchar&lt;/span&gt;&lt;/p&gt;&lt;p&gt;&lt;span style=&quot;font-size: 11px;&quot;&gt;- ID_skill: varchar&lt;/span&gt;&lt;/p&gt;&lt;p&gt;&lt;span style=&quot;background-color: transparent; color: light-dark(rgb(0, 0, 0), rgb(255, 255, 255)); font-size: 11px;&quot;&gt;- ID: varchar&lt;/span&gt;&lt;/p&gt;&lt;/div&gt;" style="text;html=1;whiteSpace=wrap;overflow=hidden;rounded=0;" parent="1" vertex="1">
          <mxGeometry x="660" y="450" width="110" height="80" as="geometry" />
        </mxCell>
      </root>
    </mxGraphModel>
  </diagram>
</mxfile>
